<svg xmlns="http://www.w3.org/2000/svg" viewBox="0 0 120 67.327">
  <defs>
    <style>
      .cls-1 {
        fill: #fff;
      }
    </style>
  </defs>
  <g id="Layer_2" data-name="Layer 2">
    <g id="header">
      <g>
        <polygon class="cls-1" points="0 56.117 6.867 56.117 6.867 57.525 1.573 57.525 1.573 60.869 5.604 60.869 5.604 62.262 1.573 62.262 1.573 67.047 0 67.047 0 56.117"/>
        <path class="cls-1" d="M13.579,62.672l-1.77-4.8-1.787,4.8Zm-2.525-6.555h1.607l4.277,10.93H15.184L14.053,64H9.563l-1.13,3.048H6.778Z"/>
        <path class="cls-1" d="M18.511,64.392c.153.176.326.354.517.534a3.579,3.579,0,0,0,.648.482,3.439,3.439,0,0,0,.8.344,3.377,3.377,0,0,0,.968.131,2.6,2.6,0,0,0,1.686-.491,1.618,1.618,0,0,0,.607-1.328,1.507,1.507,0,0,0-.688-1.351,5.975,5.975,0,0,0-1.983-.73,6,6,0,0,1-1.278-.41,3.618,3.618,0,0,1-.992-.655,2.8,2.8,0,0,1-.647-.909,2.858,2.858,0,0,1-.229-1.173,2.9,2.9,0,0,1,.229-1.146,2.649,2.649,0,0,1,.688-.951,3.467,3.467,0,0,1,1.148-.656,4.742,4.742,0,0,1,1.59-.245,4.932,4.932,0,0,1,1.383.172,4.327,4.327,0,0,1,.992.418,3.011,3.011,0,0,1,.656.509c.164.174.29.316.376.425l-1.048.967c-.066-.077-.164-.177-.3-.3a2.773,2.773,0,0,0-.5-.368,3.286,3.286,0,0,0-.7-.3,3.171,3.171,0,0,0-.926-.123,2.627,2.627,0,0,0-.9.139,1.892,1.892,0,0,0-.622.361,1.36,1.36,0,0,0-.361.5,1.443,1.443,0,0,0-.115.557,1.335,1.335,0,0,0,.172.7,1.609,1.609,0,0,0,.5.508,3.153,3.153,0,0,0,.811.377c.323.1.692.2,1.107.3a8.4,8.4,0,0,1,1.188.386,3.651,3.651,0,0,1,1.04.639,2.913,2.913,0,0,1,.729.983,3.335,3.335,0,0,1,.271,1.417,2.834,2.834,0,0,1-.3,1.3,3.16,3.16,0,0,1-.81,1.025A3.723,3.723,0,0,1,23,67.088a4.716,4.716,0,0,1-1.523.239,5.092,5.092,0,0,1-1.4-.181,5.8,5.8,0,0,1-1.148-.459,4.992,4.992,0,0,1-.9-.615,4.357,4.357,0,0,1-.63-.664Z"/>
        <polygon class="cls-1" points="30.147 57.493 26.23 57.493 26.23 56.117 35.62 56.117 35.62 57.493 31.72 57.493 31.72 67.047 30.147 67.047 30.147 57.493"/>
        <path class="cls-1" d="M49.5,65.13a3.793,3.793,0,0,1-.557.672,5.069,5.069,0,0,1-.917.713,5.679,5.679,0,0,1-1.246.565,5,5,0,0,1-1.557.23,5.586,5.586,0,0,1-2.212-.427,5.08,5.08,0,0,1-1.721-1.188,5.453,5.453,0,0,1-1.122-1.8,6.537,6.537,0,0,1,0-4.514,5.721,5.721,0,0,1,1.122-1.836,5.174,5.174,0,0,1,1.729-1.236,5.4,5.4,0,0,1,2.237-.452,5.191,5.191,0,0,1,2.762.746,4.607,4.607,0,0,1,.884.7,4.955,4.955,0,0,1,.6.721l-1.113.95a6.412,6.412,0,0,0-.468-.581,3.184,3.184,0,0,0-.647-.549,3.737,3.737,0,0,0-.869-.41,3.576,3.576,0,0,0-1.131-.163,3.586,3.586,0,0,0-2.826,1.277,4.122,4.122,0,0,0-.762,1.377,5.241,5.241,0,0,0-.263,1.671,5.039,5.039,0,0,0,.27,1.663,4.163,4.163,0,0,0,.762,1.352,3.488,3.488,0,0,0,1.2.9,3.678,3.678,0,0,0,1.573.327,3.8,3.8,0,0,0,1.27-.188,3.642,3.642,0,0,0,.9-.451A3.438,3.438,0,0,0,48,64.663q.237-.271.4-.451Z"/>
        <polygon class="cls-1" points="51.32 56.117 52.892 56.117 52.892 60.689 58.874 60.689 58.874 56.117 60.447 56.117 60.447 67.047 58.874 67.047 58.874 62.099 52.892 62.099 52.892 67.047 51.32 67.047 51.32 56.117"/>
        <path class="cls-1" d="M68.658,62.672l-1.77-4.8-1.787,4.8Zm-2.524-6.555H67.74l4.278,10.93H70.263L69.133,64h-4.49l-1.131,3.048H61.857Z"/>
        <path class="cls-1" d="M77.064,61.246a2.121,2.121,0,0,0,1.549-.508,1.821,1.821,0,0,0,.517-1.36,1.786,1.786,0,0,0-.558-1.4,2.223,2.223,0,0,0-1.54-.5H74.968v3.769Zm-3.621-5.129h3.491A4.81,4.81,0,0,1,78.7,56.4a3.425,3.425,0,0,1,1.172.738,2.754,2.754,0,0,1,.656,1.025,3.607,3.607,0,0,1-.288,3.015,2.93,2.93,0,0,1-1.523,1.2l2.557,4.671h-1.77l-2.344-4.474H74.968v4.474H73.443Z"/>
        <path class="cls-1" d="M88.7,61.492h3.835v4.359a5.9,5.9,0,0,1-.713.54,5.022,5.022,0,0,1-.934.468,6.894,6.894,0,0,1-1.189.328,8.037,8.037,0,0,1-1.474.123,5.837,5.837,0,0,1-2.3-.435,5.21,5.21,0,0,1-1.753-1.2,5.128,5.128,0,0,1-1.114-1.8,6.486,6.486,0,0,1-.386-2.27,6.2,6.2,0,0,1,.4-2.245,5.577,5.577,0,0,1,1.123-1.827,5.224,5.224,0,0,1,1.728-1.228,5.862,5.862,0,0,1,3.794-.247,4.946,4.946,0,0,1,1.2.524,4.484,4.484,0,0,1,.878.7A6.948,6.948,0,0,1,92.4,58l-1.115.95a6.3,6.3,0,0,0-.474-.581,3.479,3.479,0,0,0-.656-.549,3.856,3.856,0,0,0-.861-.41,3.446,3.446,0,0,0-1.106-.163,3.707,3.707,0,0,0-1.622.344,3.62,3.62,0,0,0-1.222.933,4.23,4.23,0,0,0-.77,1.386,5.178,5.178,0,0,0-.27,1.679,4.884,4.884,0,0,0,.3,1.738,3.984,3.984,0,0,0,.826,1.351,3.845,3.845,0,0,0,1.254.885,3.885,3.885,0,0,0,1.591.319,5.328,5.328,0,0,0,1.613-.212,3.561,3.561,0,0,0,1.139-.591V62.852H88.7Z"/>
        <rect class="cls-1" x="94.928" y="56.117" width="1.572" height="10.93"/>
        <polygon class="cls-1" points="98.991 56.117 100.581 56.117 106.546 64.654 106.546 56.117 108.086 56.117 108.086 67.047 106.513 67.047 100.532 58.493 100.532 67.047 98.991 67.047 98.991 56.117"/>
        <path class="cls-1" d="M116.165,61.492H120v4.359a5.969,5.969,0,0,1-.712.54,5.033,5.033,0,0,1-.935.468,6.869,6.869,0,0,1-1.189.328,8.029,8.029,0,0,1-1.474.123,5.832,5.832,0,0,1-2.3-.435,5.2,5.2,0,0,1-1.754-1.2,5.142,5.142,0,0,1-1.114-1.8,6.486,6.486,0,0,1-.386-2.27,6.224,6.224,0,0,1,.4-2.245,5.594,5.594,0,0,1,1.123-1.827,5.218,5.218,0,0,1,1.729-1.228,5.859,5.859,0,0,1,3.793-.247,4.946,4.946,0,0,1,1.2.524,4.484,4.484,0,0,1,.878.7,6.825,6.825,0,0,1,.606.721l-1.115.95a6.3,6.3,0,0,0-.474-.581,3.479,3.479,0,0,0-.656-.549,3.856,3.856,0,0,0-.861-.41,3.444,3.444,0,0,0-1.105-.163,3.709,3.709,0,0,0-1.623.344,3.606,3.606,0,0,0-1.221.933,4.214,4.214,0,0,0-.771,1.386,5.178,5.178,0,0,0-.27,1.679,4.884,4.884,0,0,0,.3,1.738,3.984,3.984,0,0,0,.826,1.351,3.845,3.845,0,0,0,1.254.885,3.885,3.885,0,0,0,1.591.319,5.328,5.328,0,0,0,1.613-.212,3.561,3.561,0,0,0,1.139-.591V62.852h-2.327Z"/>
        <path class="cls-1" d="M56.871.7,48.838,25.3a1.009,1.009,0,0,1-1.916.007L38.682.689A1.008,1.008,0,0,0,37.726,0H1.009A1.009,1.009,0,0,0,0,1.009V37.617a1.009,1.009,0,0,0,1.009,1.008H26.671a1.008,1.008,0,0,0,1.009-1.008V31.932a1.009,1.009,0,0,0-1.009-1.009H9.753a1.01,1.01,0,0,1-1.009-1.008V23.593a1.011,1.011,0,0,1,1.009-1.009H21.46a1.009,1.009,0,0,0,1.01-1.008V16.181a1.01,1.01,0,0,0-1.01-1.009H9.753a1.01,1.01,0,0,1-1.009-1.01V8.652A1.01,1.01,0,0,1,9.753,7.644H30.884a1.009,1.009,0,0,1,.947.66l10.9,29.66a1.008,1.008,0,0,0,.947.661h7.8a1.008,1.008,0,0,0,.947-.661L65.867,1.356A1.009,1.009,0,0,0,64.919,0H57.831A1.009,1.009,0,0,0,56.871.7Z"/>
        <path class="cls-1" d="M80.564,19.1a1.018,1.018,0,0,0-.747-.979c-.293-.08-.584-.146-.875-.2a12.852,12.852,0,0,0-2.142-.144,7.468,7.468,0,0,0-3.127.608,6.412,6.412,0,0,0-3.562,4,9.4,9.4,0,0,0-.434,2.867,7.193,7.193,0,0,0,1.418,4.69,5.034,5.034,0,0,0,4.142,1.738,5.7,5.7,0,0,0,3.937-1.246,4.993,4.993,0,0,0,1.39-3.909ZM66.458,42.976a1,1,0,0,1,1.321-.411A14.8,14.8,0,0,0,70.4,43.634a13.888,13.888,0,0,0,4.024.552,6.3,6.3,0,0,0,4.46-1.507,5.878,5.878,0,0,0,1.622-4.517,1.006,1.006,0,0,0-1.5-.876,11.284,11.284,0,0,1-5.452,1.224,13.334,13.334,0,0,1-5.184-.956,10.565,10.565,0,0,1-3.851-2.693,12.083,12.083,0,0,1-2.4-4.111,15.53,15.53,0,0,1-.84-5.212,15.373,15.373,0,0,1,1.129-5.994,13.442,13.442,0,0,1,3.185-4.633,14.081,14.081,0,0,1,4.923-2.982,18.611,18.611,0,0,1,6.4-1.042,34.258,34.258,0,0,1,6.4.578,38.223,38.223,0,0,1,4.79,1.215,1,1,0,0,1,.683.959V37.757q0,6.717-3.707,9.932T74.947,50.9a25.946,25.946,0,0,1-6.37-.694,16.186,16.186,0,0,1-4.109-1.66,1.02,1.02,0,0,1-.391-1.387Z"/>
        <path class="cls-1" d="M105.465,32.313a5.995,5.995,0,0,0,4.835-2.257,7.044,7.044,0,0,0,1.245-2.346,9.159,9.159,0,0,0,0-5.387,6.714,6.714,0,0,0-1.245-2.315,6.277,6.277,0,0,0-2.056-1.622,6.131,6.131,0,0,0-2.779-.608,6.318,6.318,0,0,0-2.809.608,5.876,5.876,0,0,0-2.055,1.622,7.443,7.443,0,0,0-1.247,2.315,8.594,8.594,0,0,0,0,5.387,7.838,7.838,0,0,0,1.247,2.346,5.758,5.758,0,0,0,2.055,1.65A6.318,6.318,0,0,0,105.465,32.313Zm-14.594-7.3a14.861,14.861,0,0,1,1.071-5.647,14.243,14.243,0,0,1,2.982-4.6,13.747,13.747,0,0,1,4.6-3.1,15.212,15.212,0,0,1,5.936-1.129,15,15,0,0,1,5.906,1.129,13.811,13.811,0,0,1,4.575,3.1,14.245,14.245,0,0,1,2.983,4.6,15.42,15.42,0,0,1,0,11.293,14.01,14.01,0,0,1-7.558,7.732,14.679,14.679,0,0,1-5.906,1.157A14.884,14.884,0,0,1,99.529,38.4a13.93,13.93,0,0,1-7.587-7.732A14.849,14.849,0,0,1,90.871,25.017Z"/>
        <path class="cls-1" d="M118.383,12.223a.358.358,0,0,0,.273-.1.372.372,0,0,0,.094-.269q0-.327-.415-.327h-.328v.694Zm-.583-.873h.588a.574.574,0,0,1,.434.147.5.5,0,0,1,.14.355.559.559,0,0,1-.093.324.565.565,0,0,1-.284.2l.435.733h-.236l-.421-.709h-.356v.709H117.8Zm.521,2.355a1.4,1.4,0,0,0,1.327-.9,1.607,1.607,0,0,0,0-1.148,1.428,1.428,0,0,0-.3-.471,1.413,1.413,0,0,0-1.03-.432,1.406,1.406,0,0,0-1.332.9,1.593,1.593,0,0,0,0,1.148,1.4,1.4,0,0,0,.3.471,1.418,1.418,0,0,0,.456.316A1.4,1.4,0,0,0,118.321,13.705Zm-1.68-1.482a1.653,1.653,0,0,1,.131-.659,1.706,1.706,0,0,1,.357-.535,1.648,1.648,0,0,1,.533-.359,1.681,1.681,0,0,1,.664-.131,1.662,1.662,0,0,1,.658.131,1.633,1.633,0,0,1,.532.359,1.751,1.751,0,0,1,.354.535,1.735,1.735,0,0,1,0,1.318,1.743,1.743,0,0,1-.354.536,1.651,1.651,0,0,1-.532.36,1.679,1.679,0,0,1-.658.13,1.7,1.7,0,0,1-.664-.13,1.666,1.666,0,0,1-.533-.36,1.7,1.7,0,0,1-.357-.536A1.643,1.643,0,0,1,116.641,12.223Z"/>
      </g>
    </g>
  </g>
</svg>
